<svg width="1200" height="630" viewBox="0 0 1200 630" fill="none" xmlns="http://www.w3.org/2000/svg">
  <rect width="1200" height="630" rx="40" fill="#F7F2E9" />
  <rect x="48" y="48" width="1104" height="534" rx="32" fill="#E6F0EA" />
  <circle cx="171" cy="164" r="54" fill="#4D8D77" />
  <path d="M171 122C179.989 122 187.275 129.286 187.275 138.275C187.275 145.057 183.126 150.875 177.241 153.331L211 220H179.758L158.201 176.643H150.25V220H123V122H171Z" fill="white"/>
  <text x="274" y="214" fill="#2F3A33" font-family="Nunito, Arial, sans-serif" font-size="76" font-weight="800">
    Memento
  </text>
  <text x="274" y="286" fill="#47635B" font-family="Quicksand, Arial, sans-serif" font-size="36" font-weight="600">
    Dementia Care Companion
  </text>
  <text x="80" y="420" fill="#2F3A33" font-family="Quicksand, Arial, sans-serif" font-size="32" font-weight="600">
    Calm routines, medication support, emergency contacts,
  </text>
  <text x="80" y="470" fill="#2F3A33" font-family="Quicksand, Arial, sans-serif" font-size="32" font-weight="600">
    and caregiver coordination in one accessible app.
  </text>
  <rect x="80" y="522" width="270" height="14" rx="7" fill="#4D8D77" fill-opacity="0.28" />
  <rect x="364" y="522" width="194" height="14" rx="7" fill="#86BFD9" fill-opacity="0.45" />
  <rect x="572" y="522" width="152" height="14" rx="7" fill="#D17D54" fill-opacity="0.35" />
</svg>
